<?xml version="1.0" encoding="utf-8"?>
<!-- Generator: Adobe Illustrator 25.0.0, SVG Export Plug-In . SVG Version: 6.00 Build 0)  -->
<svg version="1.1" id="Calque_1" xmlns="http://www.w3.org/2000/svg" xmlns:xlink="http://www.w3.org/1999/xlink" x="0px" y="0px"
	 viewBox="0 0 2638.5 798.4" style="enable-background:new 0 0 2638.5 798.4;" xml:space="preserve">
<style type="text/css">
	.st0{fill:#017ADC;}
</style>
<g>
	<path class="st0" d="M736.3,515.8c-61.1,0-122.3,0-183.4,0c-2.4,0-4.5-0.4-4,3.5c6.6,44.7,25.5,82.9,59,113.6
		c25.2,23.1,55.3,35.9,89.1,40.1c63.4,7.8,118.7-10.1,166.4-52.3c14.2-12.6,30.1-17.2,47.9-9.2c26.1,11.7,32.4,44.1,12.4,64.5
		c-40,40.8-87.7,67.8-144.3,77.7c-43.3,7.6-86.5,8.2-129.2-3.9c-61.1-17.2-112-49.4-148.2-102.6c-23-33.8-36.2-71.6-44.2-111.3
		c-7.1-35.7-8.6-71.6-2.8-107.6c6.8-42,22.9-80.3,47.2-115.2c22.9-32.9,50.3-61.1,85.4-81.2c32.5-18.7,67.6-28.4,104.9-30.7
		c41.9-2.5,82.9,2.6,121.4,20.2c57.5,26.3,97.1,70,121.6,127.7c13.8,32.4,20.7,66.5,23.2,101.6c0.7,9.4,2,19,1.5,28.4
		c-1.3,21.6-19,37.1-41.9,37.1c-60.6,0.1-121.3,0-181.9,0C736.3,516,736.3,515.9,736.3,515.8z M706.7,434.6c50.5,0,100.9,0,151.4,0
		c5.9,0,5.8,0,4.9-6c-2.3-15.7-6.6-30.8-12.4-45.6c-23.2-58.5-64-95.1-128.4-100.8c-37.7-3.3-72.5,6.4-102.5,29.9
		c-38.3,30-59.3,70.4-68.6,117.5c-0.7,3.8,0,5.1,4.3,5.1C605.8,434.5,656.2,434.6,706.7,434.6z"/>
	<path class="st0" d="M1887.5,200.2c80.6,1.1,150,28.7,205.3,88.1c39.6,42.5,62.7,93.2,70.4,150.7c10.5,78.4-6.5,150.2-55.4,213
		c-43.3,55.6-100.6,89-169.8,101.9c-62.3,11.6-122.3,4.2-178.3-25.7c-80.9-43.2-131.4-110.4-147-200.6
		c-18.1-104.5,13.9-193.2,93.8-263.3c38.7-34,84.8-53,135.7-60.7C1857.2,201.2,1872.3,200.3,1887.5,200.2z M2070.6,481.9
		c-0.2-14.6-1.7-29-4.5-43.2c-7.8-40.3-25.9-75.4-55.7-103.7c-45-42.7-99-57.4-159.4-46.1c-56.5,10.6-98.8,42.1-125,93.8
		c-20.3,40.1-26,82.9-19.6,127.1c6.8,47.2,25.9,88.8,63.5,119.1c59.2,47.9,125.9,59.1,195.2,26.7
		C2037.4,621.7,2068.2,559.6,2070.6,481.9z"/>
	<path class="st0" d="M1144.2,278.1c11-10.2,20.8-19.8,31.2-28.8c30-26.3,65.1-41.6,104.6-46.7c36.8-4.8,73.3-3.3,108.5,8.8
		c63.6,21.7,104.2,65.7,122.6,130.1c7.2,25.1,10,50.9,10,76.9c0.1,97.3,0.1,194.7,0.1,292c0,26.6-18.8,46.5-45.3,48.2
		c-23.3,1.5-44.4-17-47.9-41.8c-0.6-4.1-0.7-8.3-0.7-12.4c-0.1-89,0-178-0.2-267c-0.1-24.4-3.2-48.5-11.8-71.5
		c-16.2-43.2-47.8-68.2-92.8-76.1c-31-5.5-61.9-4.4-91.1,8.8c-46.6,21-74.6,57-84.1,107.2c-2.4,13-3.1,26.1-3.1,39.2
		c0,87.9-0.1,175.7-0.1,263.6c0,18.3-6.5,33.2-22.4,43.1c-30,18.6-68.6-1.3-71.4-36.6c-0.2-3-0.3-6-0.3-9
		c0-151.9,0.1-303.8-0.1-455.7c0-19.4,7.3-34.1,24.2-43.8c30.8-17.7,69.1,3.8,69.9,39.3C1144.4,256.1,1144.2,266.6,1144.2,278.1z"/>
	<path class="st0" d="M147.8,455c0-50.2,0-100.5,0-150.7c0-7.7,0-7.8-8-8c-19.6-0.3-39.3,0.9-58.9-0.8c-16.8-1.5-30-9.4-36.5-25.4
		c-6.3-15.5-4.5-30.5,6.6-43.5c8.3-9.7,19.4-14.6,32.1-14.9c18.1-0.4,36.3-0.2,54.5-0.3c9.5,0,10.2-0.7,10.2-10.2
		c0-37.6-0.1-75.2,0.1-112.8c0.1-19.7,8.2-35.2,26.3-44.2c28.3-14.2,62.7,4.4,66.7,35.8c0.5,4.3,0.8,8.6,0.8,12.9
		c0.1,37.8,0.2,75.5,0.1,113.3c0,4.1,1.1,5.2,5.2,5.2c39.6-0.2,79.3-0.1,118.9-0.1c6.3,0,12.6,0.1,18.8,1.9
		c19.6,5.6,32.2,24.6,30.1,45.5c-2,19.8-18.9,35.5-39.8,36.7c-5.2,0.3-10.3,0.3-15.5,0.3c-37.6,0-75.3,0.1-112.9-0.1
		c-3.6,0-4.8,0.7-4.8,4.6c0.1,99,0.1,198,0.2,297c0,9.5,1.3,18.9,4.3,28c9.3,27.4,29.9,39.7,57.6,42.7c21.5,2.3,42.5,0.5,63.2-5.8
		c13.8-4.2,27.1-3.6,38.9,5.5c20.7,15.9,19.7,46.1-2.1,62.1c-11,8.1-23.8,12.5-36.8,16.3c-26.7,7.8-54,12.4-81.8,8.7
		c-60.1-8.1-102.2-40.5-126.2-96c-8.1-18.7-11-38.6-11-58.9c-0.1-48.3,0-96.5,0-144.8C147.9,455,147.9,455,147.8,455z"/>
	<path class="st0" d="M2353.9,313c10.2-11.8,19.5-22.7,29.1-33.3c32.3-35.5,70.9-61,118.1-72.5c18.6-4.5,37.5-6.8,56.4-3.7
		c23.6,3.8,40.3,24.7,40.1,48.4c-0.2,23.5-17.8,44.8-41.1,48.4c-14,2.1-28.2,2.6-42.2,4c-57.8,5.9-100.7,34.5-128.7,85.2
		c-17.2,31.2-26.2,64.8-29.7,100.1c-1.6,15.9-1.9,31.9-1.9,47.8c0,56.4,0,112.8,0,169.2c0,18.1-6.1,33.3-21.4,43.8
		c-29.4,20-69.9,0.2-72.5-35.2c-0.2-3.1-0.3-6.3-0.3-9.5c0-152.1,0.1-304.1-0.2-456.2c0-24.5,15.2-40.4,29-46
		c28.3-11.3,56.9,4.4,63.3,35.1c2,9.5,2,19.2,2,28.8C2354,282.3,2353.9,297,2353.9,313z"/>
</g>
</svg>
